#!OML:ASF E:\emotionWalksFemale\Project 1\Capture day 1\Session 1\Female1.ASF
:FULLY-SPECIFIED
:DEGREES
192
root 8.58386 20.9878 3.0354 -164.944 1.6033 -176.541
lowerback 16.8741 1.31233 2.36104
upperback -3.39077 2.27634 -0.0274041
thorax -13.223 0.870535 -2.00585
lowerneck -10.6591 -2.22052 -6.2662
upperneck 15.4535 -2.87364 3.69477
head 6.60181 -1.56741 1.9489
rclavicle -1.09829e-014 -6.95746e-015
rhumerus 52.0193 -32.779 -28.4905
rradius 75.5782
rwrist -34.4884
rhand -0.715452 -37.7584
rfingers 7.12502
rthumb 24.9049 -66.1558
lclavicle -1.09829e-014 -6.95746e-015
lhumerus 78.0998 38.2386 47.1348
lradius 49.5527
lwrist 28.3954
lhand -17.9798 -56.98
lfingers 7.12502
lthumb 8.28978 -27.1626
rfemur -13.8971 16.6549 23.1631
rtibia 8.36679
rfoot -30.2819 -38.5756
rtoes 64.4116
lfemur -25.392 -31.0059 -10.5017
ltibia 24.2498
lfoot -41.7762 19.6482
ltoes 69.0573
193
root 8.58526 20.9972 2.90535 -165 1.55091 -176.726
lowerback 17.4545 1.25129 2.28471
upperback -3.22483 2.18162 -0.0932494
thorax -13.3818 0.825838 -2.02635
lowerneck -10.781 -2.22314 -6.01519
upperneck 15.6262 -2.88751 3.47471
head 6.67227 -1.58009 1.83437
rclavicle 4.02042e-014 -1.98785e-016
rhumerus 49.3486 -31.2212 -25.8161
rradius 76.0213
rwrist -34.6061
rhand -0.732877 -37.7686
rfingers 7.12502
rthumb 24.8882 -66.1684
lclavicle 4.02042e-014 -1.98785e-016
lhumerus 75.1333 38.0836 44.9001
lradius 50.6586
lwrist 28.3187
lhand -18.8365 -58.3476
lfingers 7.12502
lthumb 7.46295 -28.4992
rfemur -15.2596 16.6291 22.5546
rtibia 8.15884
rfoot -31.4903 -37.248
rtoes 64.7765
lfemur -26.6329 -31.0585 -9.84595
ltibia 23.9688
lfoot -42.0659 18.6965
ltoes 69.1484
194
root 8.58927 20.9935 2.7792 -165.018 1.50944 -176.812
lowerback 17.9644 1.16924 2.20869
upperback -3.01528 2.06521 -0.102734
thorax -13.45 0.777776 -1.97356
lowerneck -10.6525 -2.19439 -5.87967
upperneck 15.4632 -2.8634 3.42968
head 6.59381 -1.56231 1.80088
rclavicle -2.43014e-014 -9.93923e-016
rhumerus 47.0722 -29.5945 -23.4469
rradius 76.4148
rwrist -34.5698
rhand -0.204794 -37.8182
rfingers 7.12502
rthumb 25.3942 -66.147
lclavicle -2.43014e-014 -9.93923e-016
lhumerus 72.0651 38.3829 42.3856
lradius 52.1213
lwrist 29.9385
lhand -17.6969 -57.6061
lfingers 7.12502
lthumb 8.56283 -27.7997
rfemur -16.5878 16.6408 22.077
rtibia 7.85052
rfoot -33.5941 -35.0995
rtoes 65.5794
lfemur -27.9787 -31.1914 -8.98482
ltibia 23.7198
lfoot -42.0058 18.9166
ltoes 69.0543
195
root 8.5917 20.9842 2.65406 -164.981 1.4964 -176.801
lowerback 18.4089 1.11525 2.20984
upperback -2.84658 2.0064 -0.0957779
thorax -13.521 0.751531 -1.96068
lowerneck -10.3198 -2.19729 -5.91467
upperneck 15.1773 -2.891 3.55345
head 6.44813 -1.56705 1.84665
rclavicle 3.27995e-015 3.37934e-015
rhumerus 44.7637 -27.8109 -21.1157
rradius 76.9194
rwrist -34.633
rhand 0.189482 -37.8699
rfingers 7.12502
rthumb 25.7719 -66.1445
lclavicle 3.27995e-015 3.37934e-015
lhumerus 67.9895 38.6755 38.7461
lradius 53.8986
lwrist 31.8578
lhand -19.0702 -57.384
lfingers 7.12502
lthumb 7.23739 -27.5278
rfemur -17.9159 16.6954 21.647
rtibia 7.40916
rfoot -34.1423 -34.159
rtoes 65.8281
lfemur -29.3921 -31.3084 -7.97097
ltibia 23.5199
lfoot -41.5297 20.3431
ltoes 68.8399
196
root 8.59263 20.9604 2.5258 -165.04 1.48507 -176.744
lowerback 18.8986 1.1036 2.30698
upperback -2.64769 2.02916 -0.0964276
thorax -13.5754 0.756569 -2.03574
lowerneck -9.93104 -2.17982 -5.75089
upperneck 14.9802 -2.87572 3.30365
head 6.3116 -1.57386 1.74415
rclavicle -3.03147e-015 7.95139e-015
rhumerus 42.4086 -25.8903 -18.833
rradius 77.5262
rwrist -34.7134
rhand 0.326164 -37.9658
rfingers 7.12502
rthumb 25.9027 -66.2213
lclavicle -3.03147e-015 7.95139e-015
lhumerus 65.0625 37.918 36.6522
lradius 55.4122
lwrist 32.4483
lhand -18.6332 -56.5066
lfingers 7.12502
lthumb 7.65917 -26.6653
rfemur -19.1608 16.7446 21.2577
rtibia 7.03509
rfoot -33.8851 -33.8578
rtoes 65.8122
lfemur -30.6158 -31.4945 -6.97457
ltibia 23.2932
lfoot -41.6686 21.0571
ltoes 68.7401
197
root 8.59784 20.9198 2.39176 -165.206 1.4858 -176.818
lowerback 19.343 1.12173 2.3295
upperback -2.35936 2.06632 -0.162538
thorax -13.4965 0.776002 -2.14347
lowerneck -9.84291 -2.25587 -5.79359
upperneck 14.7797 -2.987 3.45178
head 6.24076 -1.6137 1.79001
rclavicle -1.18277e-014 4.77083e-015
rhumerus 39.9936 -23.9657 -16.5897
rradius 78.2507
rwrist -34.6703
rhand 0.541382 -38.0617
rfingers 7.12502
rthumb 26.1088 -66.2869
lclavicle -1.18277e-014 4.77083e-015
lhumerus 61.6483 37.2401 33.8759
lradius 57.1126
lwrist 32.9383
lhand -18.8238 -56.2179
lfingers 7.12502
lthumb 7.47518 -26.37
rfemur -20.2997 16.7682 20.8105
rtibia 6.8131
rfoot -34.9287 -32.2413
rtoes 66.1742
lfemur -31.6569 -31.8534 -6.14535
ltibia 23.0013
lfoot -42.7563 20.5357
ltoes 68.7568
198
root 8.6033 20.8693 2.25653 -165.396 1.49818 -176.967
lowerback 19.8663 1.11542 2.26512
upperback -2.12188 2.05612 -0.214057
thorax -13.5281 0.77868 -2.17515
lowerneck -9.72868 -2.32761 -5.94797
upperneck 14.515 -3.06835 3.5823
head 6.14573 -1.64561 1.85146
rclavicle -1.86361e-014 1.21259e-014
rhumerus 37.6814 -21.8317 -14.5342
rradius 79.0702
rwrist -34.6915
rhand 0.792089 -38.3861
rfingers 7.12502
rthumb 26.3488 -66.5756
lclavicle -1.86361e-014 1.21259e-014
lhumerus 57.9814 36.3174 30.9414
lradius 58.9356
lwrist 33.3904
lhand -19.1683 -56.7255
lfingers 7.12502
lthumb 7.14267 -26.8661
rfemur -21.3912 16.7865 20.3357
rtibia 6.64677
rfoot -35.8826 -30.7296
rtoes 66.3246
lfemur -32.6224 -32.2108 -5.45942
ltibia 22.7016
lfoot -44.4548 19.3321
ltoes 68.8505
199
root 8.60808 20.8075 2.12454 -165.623 1.48647 -176.98
lowerback 20.5366 1.09367 2.23063
upperback -1.93083 2.04987 -0.184539
thorax -13.7007 0.782057 -2.13997
lowerneck -9.84731 -2.38115 -6.00707
upperneck 14.5364 -3.09966 3.44334
head 6.17385 -1.67192 1.81311
rclavicle 9.39258e-015 4.96962e-015
rhumerus 35.7351 -19.5584 -13.0109
rradius 79.6108
rwrist -34.5538
rhand 1.22668 -38.6647
rfingers 7.12502
rthumb 26.7648 -66.7913
lclavicle 9.39258e-015 4.96962e-015
lhumerus 53.4821 35.1259 27.303
lradius 61.3164
lwrist 34.3109
lhand -19.1097 -56.7
lfingers 7.12502
lthumb 7.19924 -26.8425
rfemur -22.4581 16.8138 20.0353
rtibia 6.56106
rfoot -36.1233 -30.1366
rtoes 66.1329
lfemur -33.4093 -32.0537 -4.90909
ltibia 22.409
lfoot -45.7122 18.1251
ltoes 69.0732
200
root 8.6147 20.729 1.98875 -165.98 1.43151 -176.895
lowerback 21.2553 1.05177 2.26242
upperback -1.71191 2.03544 -0.177938
thorax -13.8641 0.777558 -2.16702
lowerneck -9.95884 -2.40231 -6.10666
upperneck 14.6942 -3.13796 3.58809
head 6.24863 -1.68661 1.87118
rclavicle -6.4605e-015 -4.17448e-015
rhumerus 33.9729 -17.2138 -11.8945
rradius 79.9096
rwrist -34.3401
rhand 1.78166 -38.7621
rfingers 7.12502
rthumb 27.2958 -66.8063
lclavicle -6.4605e-015 -4.17448e-015
lhumerus 50.3315 33.5451 24.7484
lradius 63.0662
lwrist 34.5303
lhand -18.4244 -56.3742
lfingers 7.12502
lthumb 7.86071 -26.5404
rfemur -23.2408 16.8336 19.9161
rtibia 6.37755
rfoot -36.7116 -29.055
rtoes 66.4208
lfemur -33.8965 -31.4359 -4.58896
ltibia 22.1593
lfoot -46.0912 17.7077
ltoes 69.188
201
root 8.61996 20.6387 1.8477 -166.366 1.40235 -176.935
lowerback 21.8961 0.97577 2.19419
upperback -1.51727 1.9435 -0.202938
thorax -14.0142 0.74397 -2.14483
lowerneck -9.37066 -2.38704 -6.3319
upperneck 14.3339 -3.15344 3.85669
head 6.04139 -1.6901 1.99798
rclavicle -4.27387e-015 1.07344e-014
rhumerus 31.9982 -14.4817 -10.5529
rradius 80.6487
rwrist -34.6108
rhand 1.67679 -39.1622
rfingers 7.12502
rthumb 27.1954 -67.2222
lclavicle -4.27387e-015 1.07344e-014
lhumerus 45.8623 31.6663 21.0734
lradius 65.7348
lwrist 35.545
lhand -17.7153 -55.9743
lfingers 7.12502
lthumb 8.54504 -26.1672
rfemur -23.8815 16.8054 19.4582
rtibia 5.981
rfoot -37.447 -27.6421
rtoes 67.0165
lfemur -34.3489 -30.9255 -4.44208
ltibia 22.0052
lfoot -46.3916 17.6991
ltoes 69.1644
202
root 8.62381 20.5365 1.70414 -166.674 1.37147 -177.036
lowerback 22.4273 0.947626 2.10564
upperback -1.40707 1.9044 -0.216848
thorax -14.1968 0.733545 -2.11286
lowerneck -8.56459 -2.38005 -6.41532
upperneck 13.8752 -3.18055 3.8867
head 5.76177 -1.71261 2.02651
rclavicle -2.04748e-014 5.56597e-015
rhumerus 29.612 -11.3548 -8.8084
rradius 81.6326
rwrist -35.0621
rhand 1.3754 -39.7455
rfingers 7.12502
rthumb 26.9071 -67.8503
lclavicle -2.04748e-014 5.56597e-015
lhumerus 41.3342 29.2689 17.6364
lradius 68.676
lwrist 36.4687
lhand -16.9316 -55.8806
lfingers 7.12502
lthumb 9.30134 -26.1058
rfemur -24.5076 16.7596 18.8987
rtibia 5.42738
rfoot -38.4081 -26.0816
rtoes 67.5776
lfemur -34.9256 -30.5803 -4.26054
ltibia 21.905
lfoot -46.8394 17.274
ltoes 69.2801
203
root 8.6275 20.4219 1.55644 -167.037 1.32915 -177.019
lowerback 23.0263 0.986502 2.17198
upperback -1.36897 1.99654 -0.229031
thorax -14.4919 0.76625 -2.21603
lowerneck -7.79793 -2.34321 -6.262
upperneck 13.6055 -3.20208 3.84145
head 5.54368 -1.73064 1.99278
rclavicle 1.25731e-014 -2.5842e-015
rhumerus 27.1643 -8.08046 -7.30209
rradius 82.1978
rwrist -35.1641
rhand 1.6283 -40.1679
rfingers 7.12502
rthumb 27.1491 -68.2351
lclavicle 1.25731e-014 -2.5842e-015
lhumerus 37.4538 26.4219 14.3394
lradius 71.1591
lwrist 37.2918
lhand -15.9995 -56.0438
lfingers 7.12502
lthumb 10.2007 -26.3111
rfemur -24.9425 16.7478 18.5227
rtibia 4.85843
rfoot -39.2517 -24.6043
rtoes 68.0283
lfemur -35.4308 -30.3993 -3.92397
ltibia 21.7993
lfoot -47.1805 17.0556
ltoes 69.318
204
root 8.63239 20.2991 1.40772 -167.338 1.31648 -176.969
lowerback 23.4586 1.05247 2.29406
upperback -0.990681 2.15078 -0.270022
thorax -14.2789 0.845867 -2.39562
lowerneck -8.31619 -2.47722 -6.19481
upperneck 13.5339 -3.34475 3.93484
head 5.61809 -1.77283 1.99581
rclavicle -1.65488e-014 -2.5842e-015
rhumerus 24.9135 -5.58308 -6.28792
rradius 82.4676
rwrist -34.7724
rhand 2.03403 -40.4568
rfingers 7.12502
rthumb 27.5371 -68.4628
lclavicle -1.65488e-014 -2.5842e-015
lhumerus 33.9731 23.9066 11.64
lradius 73.8988
lwrist 37.3408
lhand -15.1172 -55.6464
lfingers 7.12502
lthumb 11.0517 -25.9573
rfemur -25.3116 16.7864 18.1931
rtibia 4.2049
rfoot -39.1433 -24.3115
rtoes 68.0518
lfemur -36.0801 -30.4053 -3.39675
ltibia 21.6998
lfoot -47.1746 18.1176
ltoes 68.9929
205
root 8.63475 20.1604 1.25812 -167.508 1.37492 -176.977
lowerback 23.6886 1.12679 2.30441
upperback -0.633325 2.28472 -0.273496
thorax -13.9804 0.929426 -2.45446
lowerneck -8.78988 -2.62473 -6.45249
upperneck 13.3896 -3.47674 4.14855
head 5.66963 -1.81704 2.09093
rclavicle -3.0911e-014 -4.96962e-016
rhumerus 22.657 -3.0057 -5.39752
rradius 82.8223
rwrist -34.1475
rhand 2.30197 -40.8955
rfingers 7.12502
rthumb 27.7933 -68.8603
lclavicle -3.0911e-014 -4.96962e-016
lhumerus 30.3228 21.2711 8.9893
lradius 76.7363
lwrist 37.2431
lhand -14.4985 -55.0978
lfingers 7.12502
lthumb 11.6484 -25.4416
rfemur -25.8767 16.8708 17.7515
rtibia 3.4887
rfoot -38.0509 -25.5746
rtoes 67.7013
lfemur -37.0294 -30.8187 -2.57846
ltibia 21.6027
lfoot -47.4622 19.7644
ltoes 68.4662
